Cover: 
 
http://www.shotpix.com/images/15307974195809306314.jpg


Release Title: Rihanna - Cheers (Drink To That) (2011)

Rihanna thanks all her supporters who watched the preview cut but here's what you've been waiting for- from Rihanna to you: RIHANNA'S PERSONAL CUT of "Cheers (Drink To That)." (C) 2011 Island Def Jam.

                        1080p Full HD MP4 Video
                                  +
                         96 Kbps/VBR M4A Audio


Sing Along!
Exclusive english subtitles included.



General
Format                         : MPEG-4
Format profile                 : Base Media / Version 2
File size                      : 47.3 MiB
Duration                       : 4mn 39s
Overall bit rate mode          : Variable
Overall bit rate               : 1 419 Kbps


Video
ID                             : 1
Format                         : AVC
Format/Info                    : Advanced Video Codec
Format settings, ReFrames      : 8 frames
Bit rate                       : 1 286 Kbps
Width                          : 1 920 pixels
Height                         : 1 080 pixels
Display aspect ratio           : 16:9
Frame rate mode                : Variable
Frame rate                     : 23.976 fps
Bit depth                      : 8 bits
Stream size                    : 42.8 MiB (91%)
Writing library                : x264 core 120


Audio
ID                             : 2
Format                         : AAC
Format/Info                    : Advanced Audio Codec
Format profile                 : LC
Bit rate mode                  : Variable
Bit rate                       : 125 Kbps
Channel(s)                     : 2 channels
Channel positions              : Front: L R
Sampling rate                  : 48.0 KHz
Stream size                    : 4.17 MiB (9%)


Subtitle                       : Yes (English)



Screens:

 
http://www.shotpix.com/images/47730495163079593237.jpg 
http://www.shotpix.com/images/98884454198567842972.jpg


Thumbs:
 
http://www.shotpix.com/images/62683492890856324876.jpg


------------------------------------------------------------------------


Notes:

* Best played on VLC Media Player.
* Install shark007 codecs in case of any kind of problem in playback (For non-VLC Media Player users).
* Alternatively, install Core AVC codecs, the fastest decoder that there is coupled with Community Center Codec Pack and play on Windows Media Player Classic.
* Read NFO
* Help in seeding this torrent as much as you can. 



Greets to: srkfan, VYTO, MgB, staff members at ExtraTorrent, TPB,KAT, 1337x, PublicHD, Ahashare,
SilverTorrent, TorrentMafia, P2PDL, and all others


Encoder Notes: Looking For Early Access To Anything You Can Provide DVDScr, R5, DVDRips, BluRay, Direct Audio, Early Music
Releases, Seedboxes, Links, Dedicated Servers anything u can provide, Advance / Promo CDs/DVDs. If You Got anything to
offer contact me at "contact@tinym.eu"


Facebook Fan Page: http : // www . facebook . com / p2pdl

                                Enjoy!